<svg xmlns="http://www.w3.org/2000/svg" xmlns:xlink="http://www.w3.org/1999/xlink" preserveAspectRatio="xMidYMid" width="166.65" height="123.988" viewBox="0 0 500 372">
  <defs>
    <style>
      .cls-1 {
        fill: #010101;
        fill-rule: evenodd;
      }
    </style>
  </defs>
  <path d="M490.892,202.772 C485.689,211.451 478.834,218.338 470.329,223.439 C461.820,228.539 452.508,231.089 442.384,231.089 C439.431,231.089 436.373,230.826 433.210,230.298 C430.046,229.770 426.916,228.979 423.825,227.923 L423.825,361.241 L402.312,363.000 C400.625,343.183 399.149,321.783 397.883,298.803 C397.320,288.954 396.792,278.283 396.301,266.793 C395.807,255.303 395.352,243.198 394.931,230.474 C394.509,217.753 394.192,204.504 393.981,190.725 C393.771,176.948 393.665,162.908 393.665,148.601 C393.665,126.088 395.141,106.214 398.094,88.978 C401.047,71.741 405.018,57.261 410.010,45.535 C414.999,33.811 420.730,24.957 427.199,18.977 C433.665,12.997 440.486,10.007 447.657,10.007 C450.326,10.007 452.857,10.389 455.249,11.150 C457.639,11.914 459.711,13.115 461.471,14.756 C463.228,16.399 464.598,18.625 465.584,21.439 C466.566,24.253 467.060,27.656 467.060,31.640 C467.060,41.726 465.653,52.834 462.842,64.970 C460.028,77.106 456.479,89.390 452.191,101.817 C447.901,114.247 443.228,126.413 438.166,138.312 C433.104,150.214 428.323,160.973 423.825,170.586 L423.825,209.984 C425.090,211.391 426.599,212.622 428.359,213.677 C430.115,214.732 432.014,215.584 434.053,216.227 C436.090,216.873 438.166,217.371 440.275,217.722 C442.384,218.074 444.282,218.250 445.970,218.250 C453.279,218.250 460.028,216.667 466.216,213.501 C472.402,210.335 477.744,204.944 482.245,197.320 L484.354,193.627 L493.001,199.079 L490.892,202.772 ZM433.737,121.867 C436.828,112.840 439.570,103.724 441.962,94.518 C444.351,85.314 446.250,76.138 447.657,66.992 C449.061,57.847 449.766,49.053 449.766,40.610 C449.766,35.218 449.133,30.879 447.868,27.595 C446.602,24.314 444.210,22.670 440.697,22.670 C437.603,22.670 434.966,25.309 432.788,30.585 C430.606,35.862 428.850,42.985 427.515,51.955 C426.177,60.925 425.228,71.420 424.668,83.437 C424.105,95.458 423.825,108.209 423.825,121.691 L423.825,147.898 C427.337,139.574 430.643,130.898 433.737,121.867 ZM371.533,228.451 C366.260,236.893 360.915,244.399 355.504,250.964 C350.090,257.532 344.642,262.836 339.159,266.881 C333.675,270.926 328.192,272.949 322.708,272.949 C316.941,272.949 311.985,271.982 307.839,270.047 C303.691,268.112 300.247,264.919 297.505,260.461 C294.763,256.007 292.723,250.115 291.389,242.785 C290.051,235.459 289.385,226.401 289.385,215.612 C289.385,212.564 289.385,209.368 289.385,206.026 C289.385,202.685 289.524,199.197 289.807,195.561 L287.698,195.561 L285.589,199.079 L283.480,202.772 L274.833,197.320 L276.942,193.627 C280.455,187.647 283.374,181.639 285.694,175.599 C288.014,169.561 289.913,163.903 291.389,158.626 C292.865,153.350 294.094,148.719 295.080,144.732 C296.062,140.747 297.047,137.872 298.032,136.114 C298.876,134.707 300.105,133.563 301.723,132.684 C303.338,131.805 305.025,131.074 306.785,130.485 C308.541,129.900 310.229,129.491 311.847,129.254 C313.461,129.021 314.621,128.903 315.327,128.903 C318.418,128.903 320.494,129.430 321.548,130.485 C322.603,131.541 323.130,133.418 323.130,136.114 C323.130,137.405 322.814,140.599 322.181,145.699 C321.548,150.800 320.843,157.192 320.072,164.870 C319.297,172.551 318.596,181.169 317.963,190.725 C317.330,200.283 317.014,210.159 317.014,220.361 C317.014,227.748 317.436,233.582 318.279,237.861 C319.123,242.142 320.210,245.336 321.548,247.446 C322.883,249.557 324.359,250.906 325.977,251.491 C327.592,252.080 329.246,252.371 330.934,252.371 C333.181,252.371 335.712,251.552 338.526,249.909 C341.337,248.268 344.642,245.366 348.439,241.202 C352.235,237.042 356.591,231.414 361.515,224.318 C366.435,217.225 372.198,208.225 378.809,197.320 L381.129,193.627 L389.776,199.079 L387.456,202.772 C382.111,211.451 376.805,220.009 371.533,228.451 ZM313.639,107.269 C308.858,107.269 304.781,105.892 301.407,103.136 C298.032,100.382 296.345,96.953 296.345,92.847 C296.345,88.862 298.032,85.460 301.407,82.646 C304.781,79.832 308.858,78.425 313.639,78.425 C318.559,78.425 322.672,79.832 325.977,82.646 C329.279,85.460 330.934,88.862 330.934,92.847 C330.934,96.953 329.279,100.382 325.977,103.136 C322.672,105.892 318.559,107.269 313.639,107.269 ZM258.817,216.579 C254.388,222.620 249.748,228.539 244.897,234.343 C240.046,240.147 235.195,245.718 230.345,251.052 C225.494,256.389 221.028,261.165 216.952,265.386 L216.952,303.552 C216.952,314.339 215.792,323.515 213.472,331.078 C211.152,338.640 207.989,344.796 203.981,349.545 C199.974,354.294 195.193,357.724 189.640,359.834 C184.084,361.945 178.073,363.000 171.607,363.000 C163.593,363.000 156.913,360.917 151.572,356.756 C146.226,352.593 143.557,346.877 143.557,339.608 C143.557,334.447 144.717,329.231 147.037,323.954 C149.357,318.678 152.554,313.283 156.633,307.773 C160.710,302.261 165.455,296.544 170.869,290.625 C176.280,284.703 182.153,278.577 188.480,272.245 L188.480,239.004 C185.105,244.517 181.309,249.381 177.091,253.602 C172.873,257.823 168.408,261.371 163.699,264.243 C158.986,267.117 154.135,269.286 149.146,270.750 C144.154,272.218 139.267,272.949 134.488,272.949 C127.878,272.949 121.518,271.602 115.401,268.904 C109.285,266.208 103.835,262.132 99.056,256.680 C94.275,251.228 90.478,244.341 87.667,236.014 C84.853,227.690 83.449,217.898 83.449,206.642 C83.449,197.144 84.784,187.765 87.456,178.501 C90.126,169.240 94.133,160.943 99.478,153.614 C104.820,146.287 111.427,140.335 119.303,135.762 C127.176,131.189 136.386,128.903 146.932,128.903 C155.226,128.903 162.993,130.310 170.237,133.124 C177.477,135.938 183.557,140.043 188.480,145.435 L188.480,143.325 C188.480,141.099 189.287,139.076 190.905,137.257 C192.520,135.440 194.560,133.915 197.022,132.684 C199.480,131.453 202.083,130.516 204.825,129.870 C207.567,129.227 209.992,128.903 212.101,128.903 C214.490,128.903 216.178,129.166 217.163,129.694 C218.145,130.222 218.639,131.131 218.639,132.420 C218.639,134.297 218.356,138.518 217.796,145.084 C217.232,151.652 216.952,161.265 216.952,173.928 L216.952,250.260 C220.465,246.627 224.192,242.582 228.130,238.125 C232.065,233.670 236.003,229.009 239.941,224.142 C243.875,219.278 247.708,214.265 251.435,209.104 C255.159,203.946 258.639,198.788 261.875,193.627 L263.984,190.109 L272.631,195.561 L270.522,199.079 C267.147,204.707 263.246,210.541 258.817,216.579 ZM188.480,171.817 C188.480,166.541 187.495,161.765 185.527,157.483 C183.557,153.204 180.957,149.569 177.724,146.579 C174.488,143.589 170.797,141.275 166.651,139.631 C162.502,137.991 158.248,137.169 153.891,137.169 C147.143,137.169 141.237,138.840 136.175,142.182 C131.114,145.523 126.896,149.920 123.521,155.373 C120.147,160.825 117.649,167.069 116.034,174.104 C114.416,181.139 113.609,188.293 113.609,195.561 C113.609,204.592 114.274,212.740 115.612,220.009 C116.947,227.280 119.020,233.524 121.834,238.740 C124.645,243.959 128.161,247.974 132.379,250.788 C136.597,253.602 141.587,255.009 147.353,255.009 C151.710,255.009 156.033,253.954 160.324,251.843 C164.611,249.733 168.582,247.037 172.240,243.753 C175.895,240.471 179.164,236.866 182.047,232.936 C184.927,229.009 187.073,225.170 188.480,221.416 L188.480,171.817 ZM188.480,286.316 C178.778,296.047 170.869,305.281 164.753,314.017 C158.637,322.751 155.579,330.929 155.579,338.553 C155.579,342.186 156.772,345.382 159.164,348.138 C161.553,350.892 164.928,352.271 169.288,352.271 C171.535,352.271 173.822,351.889 176.142,351.128 C178.462,350.364 180.535,348.635 182.364,345.940 C184.189,343.241 185.666,339.256 186.793,333.980 C187.916,328.703 188.480,321.550 188.480,312.522 L188.480,286.316 ZM40.226,268.288 C38.467,269.756 36.394,270.899 34.005,271.718 C31.612,272.539 29.081,272.949 26.412,272.949 C23.740,272.949 21.209,272.539 18.819,271.718 C16.427,270.899 14.354,269.756 12.598,268.288 C10.838,266.823 9.467,265.095 8.485,263.100 C7.500,261.107 7.009,258.997 7.009,256.768 C7.009,254.542 7.500,252.431 8.485,250.436 C9.467,248.444 10.838,246.715 12.598,245.248 C14.354,243.783 16.427,242.640 18.819,241.818 C21.209,240.999 23.740,240.587 26.412,240.587 C29.081,240.587 31.612,240.999 34.005,241.818 C36.394,242.640 38.467,243.783 40.226,245.248 C41.983,246.715 43.354,248.444 44.339,250.436 C45.321,252.431 45.815,254.542 45.815,256.768 C45.815,258.997 45.321,261.107 44.339,263.100 C43.354,265.095 41.983,266.823 40.226,268.288 Z" class="cls-1"/>
</svg>
